<?xml version="1.0" encoding="utf-8"?>
<!-- Generator: Adobe Illustrator 25.2.1, SVG Export Plug-In . SVG Version: 6.00 Build 0)  -->
<svg version="1.1" id="Layer_2" xmlns="http://www.w3.org/2000/svg" xmlns:xlink="http://www.w3.org/1999/xlink" x="0px" y="0px"
	 viewBox="0 0 192.5 54.6" style="enable-background:new 0 0 192.5 54.6;" xml:space="preserve">
<style type="text/css">
	.st0{fill:#050000;}
	.st1{fill:#7D110E;stroke:#7D110E;stroke-width:0.25;stroke-miterlimit:10;}
</style>
<g>
	<path class="st0" d="M56.6,26.8c-1.1-0.3-1.5-0.9-1.5-1.8V9.7h10.5v1.7h-8.7v6.3h8v1.5h-8v6.2c1.2,0.3,2.6,0.3,4.2,0.3
		c1.7,0,3.2-0.2,4.5-0.5l0.5,1.5c-1.4,0.3-3,0.6-5,0.6C59.2,27.4,57.7,27.1,56.6,26.8z"/>
	<path class="st0" d="M68.9,26.8c1.5-2.7,3.3-5.4,5.6-8.4c-0.9-1.2-1.8-2.6-2.7-4.1c-0.9-1.5-1.8-3-2.6-4.4l2-0.5
		c1.4,2.7,3,5.4,4.8,8h0.8c2.1-2.9,3.8-5.6,5-8l1.8,0.5c-1.5,2.7-3.2,5.6-5.4,8.4c0.9,1.2,1.8,2.7,2.9,4.2c0.9,1.5,1.8,3,2.6,4.4
		l-1.8,0.5c-1.2-2.4-2.9-5.1-5-8.1H76c-1.2,1.7-2.1,3-2.9,4.2s-1.5,2.6-2.3,3.9L68.9,26.8z"/>
	<path class="st0" d="M87.4,10.2C89,9.7,90.7,9.4,92,9.4c4.4,0,6.6,2,6.6,5.9c0,2.1-0.5,3.6-1.5,4.5c-1.1,1.1-2.7,1.5-5.1,1.5h-2.9
		v5.9h-1.8v-17H87.4z M91.7,19.6c0.9,0,1.8,0,2.4-0.2c0.6,0,1.2-0.2,1.8-0.3c0.8-0.9,1.1-2.3,1.1-3.9c0-1.5-0.5-2.6-1.2-3.3
		c-0.8-0.6-2.1-1.1-3.6-1.1c-1.1,0-2.1,0.2-2.9,0.3v8.3h2.4C91.7,19.4,91.7,19.6,91.7,19.6z"/>
	<path class="st0" d="M103.6,26.8c-1.1-0.3-1.5-0.9-1.5-1.8V9.7h10.5v1.7h-8.7v6.3h8v1.5h-8v6.2c1.2,0.3,2.6,0.3,4.2,0.3
		c1.7,0,3.2-0.2,4.5-0.5l0.5,1.5c-1.4,0.3-3,0.6-5,0.6C106,27.4,104.6,27.1,103.6,26.8z"/>
	<path class="st0" d="M116.8,10c1.5-0.3,3.2-0.6,4.8-0.6c2.7,0,4.8,0.8,6,2.3s1.8,3.6,1.8,6.5c0,1.8-0.3,3.5-0.8,4.8
		c-0.5,1.4-1.2,2.3-2.4,3c-1.2,0.8-2.9,1.2-5,1.2h-4.5C116.8,27.1,116.8,10,116.8,10z M121.3,25.5c1.8,0,3.5-0.2,4.7-0.6
		c0.5-0.8,0.9-1.7,1.2-2.7c0.3-1.2,0.5-2.4,0.5-3.8c0-1.7-0.2-3-0.6-4.1c-0.5-1.1-1.1-1.8-2-2.4c-0.9-0.5-2.1-0.8-3.6-0.8
		c-0.8,0-1.8,0.2-2.9,0.3v14.1H121.3C121.3,25.5,121.3,25.5,121.3,25.5z"/>
	<path class="st0" d="M133.1,9.7h1.8v17.4h-1.8V9.7z"/>
	<path class="st0" d="M143.9,11.4h-5.6V9.7h13.1v1.7h-5.6v15.8H144L143.9,11.4L143.9,11.4z"/>
	<path class="st0" d="M154.7,9.7h1.8v17.4h-1.8V9.7z"/>
	<path class="st0" d="M160.6,18.7c0-3.2,0.6-5.4,1.7-6.9c1.1-1.5,3-2.3,5.6-2.3c2.3,0,4.1,0.8,5.1,2.3c1.1,1.5,1.7,3.6,1.7,6.5
		c0,3-0.6,5.4-1.7,6.9c-1.1,1.5-3,2.3-5.6,2.3C162.8,27.4,160.6,24.4,160.6,18.7z M169.6,25.5c0.6-0.2,1.2-0.3,1.7-0.5
		c0.5-0.9,0.9-1.8,1.2-3c0.3-1.1,0.5-2.3,0.5-3.6c0-2.6-0.5-4.5-1.2-5.7c-0.8-1.2-2.3-1.8-4.2-1.8c-0.8,0-1.4,0-2.1,0.2
		c-0.6,0.2-1.2,0.3-1.7,0.5c-1.1,1.8-1.5,3.9-1.5,6.5s0.5,4.5,1.2,5.7c0.8,1.2,2.3,1.8,4.2,1.8C168.4,25.6,169,25.6,169.6,25.5z"/>
	<path class="st0" d="M178.4,9.7h2l9,14.7h0.3l-0.3-5.4V9.7h1.8v17.4h-2l-9-14.7H180l0.3,5.4v9.3h-1.8V9.7H178.4z"/>
</g>
<g>
	<g>
		<path class="st0" d="M83.2,44.4L83.2,44.4h-0.6c0,0,0,0-0.2,0l-3.2-9.3c0,0,0,0,0-0.2l0,0h0.5c0,0,0,0,0.2,0l2.9,8.4l2.9-8.4
			c0,0,0,0,0.2,0h0.5c0,0,0,0,0.2,0c0,0,0,0,0,0.2L83.2,44.4z"/>
		<path class="st0" d="M89.3,37.2c-0.2,0.2-0.2,0.2-0.3,0.2s-0.3,0-0.3-0.2c-0.2-0.2-0.2-0.2-0.2-0.3s0-0.3,0.2-0.3
			c0.2-0.2,0.2-0.2,0.3-0.2c0.2,0,0.3,0,0.3,0.2c0.2,0.2,0.2,0.2,0.2,0.3C89.3,37,89.3,37.2,89.3,37.2z M88.7,44.4
			C88.7,44.4,88.6,44.4,88.7,44.4l-0.2-5.6c0,0,0-0.2,0.2-0.2h0.5c0,0,0.2,0,0.2,0.2v5.6c0,0,0,0.2-0.2,0.2h-0.5V44.4z"/>
		<path class="st0" d="M94.9,44.4C94.9,44.4,94.7,44.4,94.9,44.4h-0.5c0,0,0,0-0.2,0l-2.1-5.6c0,0,0,0,0-0.2c0,0,0,0,0.2,0h0.5
			c0,0,0,0,0.2,0l1.7,4.5l1.7-4.5c0,0,0,0,0.2,0h0.5c0,0,0,0,0.2,0c0,0,0,0,0,0.2L94.9,44.4z"/>
		<path class="st0" d="M100.3,37.2c-0.2,0.2-0.2,0.2-0.3,0.2c-0.2,0-0.3,0-0.3-0.2c-0.2-0.2-0.2-0.2-0.2-0.3s0-0.3,0.2-0.3
			c0.2-0.2,0.2-0.2,0.3-0.2s0.3,0,0.3,0.2c0.2,0.2,0.2,0.2,0.2,0.3C100.3,37,100.3,37.2,100.3,37.2z M99.7,44.4
			C99.7,44.4,99.5,44.4,99.7,44.4l-0.2-5.6c0,0,0-0.2,0.2-0.2h0.5c0,0,0.2,0,0.2,0.2v5.6c0,0,0,0.2-0.2,0.2h-0.5V44.4z"/>
		<path class="st0" d="M109.1,43.6c-0.6-0.6-0.9-1.2-0.9-2s0.3-1.5,0.8-2.1c0.6-0.6,1.2-0.8,2-0.8s1.4,0.3,2,0.9
			c0.6,0.6,0.8,1.2,0.8,2l0,0c0,0,0,0.2-0.2,0.2l-4.5,0.3c0.2,0.5,0.5,0.9,0.8,1.2c0.5,0.3,0.9,0.5,1.4,0.5s0.8-0.2,1.1-0.3
			s0.6-0.5,0.8-0.8c0,0,0,0,0.2,0l0.5,0.2V43c-0.3,0.5-0.6,0.8-1.1,1.1s-0.9,0.3-1.4,0.3C110.3,44.4,109.6,44.1,109.1,43.6z
			 M109.4,40c-0.5,0.5-0.6,0.9-0.6,1.7l4.2-0.3c0-0.6-0.3-1.1-0.8-1.4s-0.9-0.5-1.5-0.5C110.3,39.3,109.9,39.6,109.4,40z"/>
		<path class="st0" d="M117.1,44.4C116.9,44.4,116.9,44.4,117.1,44.4l-0.2-9.3c0,0,0-0.2,0.2-0.2h0.5c0,0,0.2,0,0.2,0.2v9.3
			c0,0,0,0.2-0.2,0.2h-0.5V44.4z"/>
		<path class="st0" d="M133.3,35.1C133.3,35.1,133.4,35.1,133.3,35.1L133.3,35.1c0.2,0,0.2,0,0.2,0v9.2c0,0,0,0.2-0.2,0.2H133
			c0,0-0.2,0-0.2-0.2v-8l-3.2,3.5h-0.2l-3.2-3.5v8c0,0,0,0.2-0.2,0.2h-0.5c0,0-0.2,0-0.2-0.2v-9.2c0,0,0-0.2,0.2-0.2l0,0l0,0
			l3.6,4.1L133.3,35.1z"/>
		<path class="st0" d="M141.7,38.7C141.8,38.7,141.8,38.7,141.7,38.7l0.2,5.7c0,0,0,0.2-0.2,0.2h-0.5c0,0-0.2,0-0.2-0.2v-0.8l0,0
			l0,0c-0.2,0.2-0.5,0.3-0.6,0.5c-0.3,0.2-0.6,0.2-0.9,0.3h-0.2l0,0l0,0l0,0h-0.2h-0.2c-0.2,0-0.3,0-0.5-0.2
			c-0.3-0.2-0.6-0.3-0.8-0.6c-0.3-0.2-0.5-0.5-0.5-0.8c0-0.2-0.2-0.3-0.2-0.5c0,0,0,0,0-0.2c0,0,0,0,0-0.2V42c0-0.3,0-0.5,0-0.8
			c0-0.2,0-0.3,0-0.3v-0.3c0-0.6,0-1.1,0-1.5V39c0,0,0-0.2,0.2-0.2h0.5c0,0,0.2,0,0.2,0.2v0.2c0,0.5,0,0.9,0,1.5c0,0.2,0,0.2,0,0.3
			v0.2v0.2c0,0.3,0,0.6,0,0.8v0.2v0.2c0,0.2,0,0.3,0,0.3c0.2,0.3,0.2,0.5,0.3,0.6c0.2,0.2,0.3,0.3,0.6,0.5c0.2,0,0.3,0.2,0.3,0.2
			h0.2h0.2h0.2h0.2c0.3,0,0.5,0,0.6-0.2s0.3-0.2,0.5-0.3c0.2-0.2,0.2-0.3,0.3-0.5c0-0.2,0.2-0.3,0.2-0.3v-0.2l0,0l0,0v-0.2V42v-3.2
			c0,0,0-0.2,0.2-0.2C141.5,38.7,141.7,38.7,141.7,38.7z"/>
		<path class="st0" d="M149.8,44.4L149.8,44.4l-0.6,0.2c0,0-0.2,0-0.2-0.2v-0.2c0-0.5,0-0.9,0-1.5v-0.2v-0.2c0-0.2,0-0.3,0-0.3
			c0-0.3,0-0.6,0-0.8V41v-0.2c0-0.2,0-0.3-0.2-0.3c-0.2-0.3-0.2-0.5-0.3-0.6s-0.3-0.3-0.6-0.5c-0.2,0-0.3,0-0.3-0.2l0,0l0,0l0,0l0,0
			l0,0l0,0l0,0l0,0l0,0c-0.3,0-0.5,0-0.6,0.2s-0.3,0.2-0.5,0.3c-0.2,0.2-0.2,0.3-0.3,0.5c0,0.2-0.2,0.3-0.2,0.3v0.2l0,0l0,0v0.2v0.2
			v3.2c0,0,0,0.2-0.2,0.2h-0.5c0,0-0.2,0-0.2-0.2v-5.6c0,0,0-0.2,0.2-0.2h0.5c0,0,0.2,0,0.2,0.2v0.8l0,0c0.2-0.2,0.5-0.3,0.6-0.5
			c0.3-0.2,0.6-0.2,0.9-0.3l0,0l0,0l0,0l0,0l0,0l0,0l0,0l0,0c0.2,0,0.3,0,0.5,0.2c0.3,0.2,0.6,0.3,0.9,0.6c0.3,0.3,0.5,0.5,0.5,0.9
			c0,0.2,0.2,0.3,0.2,0.5c0,0,0,0.2,0,0.3v0.2c0,0.2,0,0.3,0,0.5s0,0.2,0,0.5v0.2v0.2c0,0.2,0,0.3,0,0.3c0,0.6,0,1.1,0,1.5l0,0h0.2
			V44.4z"/>
		<path class="st0" d="M158.3,44.4L158.3,44.4l-0.6,0.2c0,0-0.2,0-0.2-0.2v-1.1c-0.3,0.3-0.6,0.6-1.1,0.8s-0.8,0.3-1.2,0.3
			c-0.8,0-1.5-0.3-2-0.9c-0.6-0.6-0.9-1.2-0.9-2s0.3-1.5,0.9-2c0.6-0.6,1.4-0.9,2.1-0.9c0.5,0,0.9,0.2,1.2,0.3
			c0.5,0.2,0.8,0.5,1.1,0.8V35c0,0,0-0.2,0.2-0.2h0.5c0,0,0.2,0,0.2,0.2v9.3h-0.2V44.4z M155.5,43.8c0.6,0,1.2-0.2,1.7-0.6
			c0.5-0.5,0.6-0.9,0.6-1.7c0-0.6-0.2-1.2-0.6-1.7c-0.5-0.5-0.9-0.6-1.7-0.6c-0.6,0-1.2,0.2-1.7,0.6c-0.5,0.5-0.6,0.9-0.6,1.7
			c0,0.6,0.2,1.2,0.6,1.7C154.3,43.6,154.9,43.8,155.5,43.8z"/>
		<path class="st0" d="M162.2,43.6c-0.6-0.6-0.9-1.2-0.9-2s0.3-1.5,0.9-2c0.6-0.6,1.2-0.9,2-0.9s1.5,0.3,2,0.9
			c0.6,0.6,0.9,1.2,0.9,2s-0.3,1.5-0.9,2c-0.6,0.6-1.2,0.9-2,0.9C163.4,44.4,162.8,44.1,162.2,43.6z M162.7,40
			c-0.5,0.5-0.6,0.9-0.6,1.7c0,0.6,0.2,1.2,0.6,1.7c0.5,0.5,0.9,0.6,1.7,0.6c0.6,0,1.2-0.2,1.7-0.6c0.5-0.5,0.6-0.9,0.6-1.7
			c0-0.6-0.2-1.2-0.6-1.7c-0.5-0.5-0.9-0.6-1.7-0.6C163.6,39.3,163.1,39.6,162.7,40z"/>
	</g>
	<path class="st0" d="M100.1,37c-0.2,0-0.3,0-0.3,0c-0.2,0-0.2-0.2-0.3-0.3c0-0.2,0-0.3,0-0.3c0-0.2,0.2-0.2,0.3-0.3
		c0.2-0.2,0.8-0.9,0.9-0.8c0.2,0,0,0.3,0,0.5s-0.3,0.9-0.3,0.9C100.3,37,100.3,37,100.1,37z"/>
</g>
<g>
	<path class="st1" d="M18.6,52.6L18.6,52.6c0.1,0,0.1,0,0.1,0c1.7,0.6,3.6,1,5.6,1.3l0,0c0,0,0,0,0.1,0l0,0c0.3,0,0.4,0,0.7,0.1
		c5.8,0.4,11.1-0.9,15.7-3.6h0.1l0,0c3.6-2.2,6.6-5.2,8.8-8.6c0,0,0,0,0-0.1c2.2-3.5,3.5-7.4,3.7-11.5l0,0l0,0
		c0.4-6.1-1-11.7-4.2-16.4c0,0,0-0.1-0.1-0.1C45,6.9,37.8,2.3,29.4,1.6C25.7,1.3,22,1.7,18.7,2.9c0,0,0,0-0.1,0
		C9.3,6.1,1.9,14.7,1,25.5C0,37.8,7.5,48.7,18.6,52.6z M24.2,53.5c-1.9-0.1-3.6-0.6-5.3-1.2c0.1-0.7,0.7-3,0-3.7
		c-0.3-0.3-0.7-0.6-1.3-0.7C16.9,47.4,16,47,16,46c0-0.9,0.4-1.2,1-1.6c0.3-0.3,0.6-0.6,0.9-0.9c0.1-0.3,0.1-0.7,0-1
		c-0.4-0.7-1.6-1.2-2.5-1.3s-2.3-0.7-2-3.7c0.1-2.2,2.9-3.3,4.9-4.2c0.6-0.3,1-0.4,1.4-0.7c0.6-0.3,1.2-0.3,1.7,0
		c0.4,0.4,0.7,1,0.6,1.6c-0.4,1.3,1.2,2.6,2.5,3.7c0.9,0.7,2.9,1.7,4.6,2.7c1.2,0.6,2.2,1.2,2.6,1.4c1.3,0.9,0.6,2.9,0.1,3.7
		c-0.4,0.9-2.2,0.7-3.6,0.6c-0.4,0-0.9,0-1.2,0c-0.4,0-0.9,0.1-1.2,0.4c-0.4,0.4-0.4,1.3-0.3,2c0,0.1,0,0.3,0,0.4
		C25.8,50.2,24.8,52.5,24.2,53.5z M49.6,40.8c-0.6-1.7-2.2-2-3.5-2.2c-0.6-0.1-1.2-0.1-1.3-0.4c-0.3-0.4-0.1-0.9,0-1.3
		c0.1-0.3,0.3-0.7,0.1-1.2c0-0.6,0.3-1.9,1.2-2.6c0.6-0.4,1.2-0.4,1.9-0.1c2,0.9,3.7-1.2,4.8-2.3C52.6,34.5,51.5,37.8,49.6,40.8z
		 M53.2,29.8c-0.3,0.4-2.5,3.9-4.6,2.9c-1.2-0.4-1.9-0.1-2.3,0.1c-1,0.7-1.4,2.3-1.3,3c0,0.3,0,0.6-0.1,1s-0.4,1,0,1.7
		c0.3,0.4,0.9,0.6,1.6,0.7c1.2,0.1,2.7,0.4,3.2,2.3c-2.2,3.5-5,6.3-8.5,8.5c-1-1-0.6-1.9-0.1-3.2c0.1-0.4,0.3-1,0.4-1.6
		c0.6-2.3-2.2-6.5-3.6-7.4c-1.4-0.9-3.3-3.9-2.7-5.2c0.1-0.3,0.1-0.6,0.1-0.9c-0.1-0.3-0.4-0.4-0.6-0.4c-0.4-0.1-1-0.4-1.2-1.4
		c-0.1-1.2,0.3-2.3,0.9-3.3c0.4-0.7,0.9-1.6,0.9-2.5c0.1-1.9,3.6-3.9,6.2-3.7c2.6,0.1,2.7-0.9,3.3-3.5c0.1-0.4,0.1-0.7,0.3-1.2
		c0.1-0.9,0.6-1.4,1.3-1.7c1.2-0.7,2.9-0.4,3.2-0.3C52.1,18.3,53.7,23.9,53.2,29.8z M18.6,3.3c0,0.4,0.1,1.3,1,2.5
		c1.3,1.7,4,3.5,7.5,2.3c1.9-0.6,3.3,0.1,4,1c0.6,0.9,0.7,1.9,0.1,2.7c-0.9,1.3-2.2,1.4-3.7,1.7c-1,0.1-2.2,0.3-3,0.9
		c-0.4,0.3-0.7,0.4-1,0.7c-1,0.7-1.7,1.2-1.7,1.7c0,0.3,0.1,0.6,0.4,0.7c0.7,0.6,1.3,2.2,1.3,3.3c0,0.6-0.4,1.2-0.9,1.3
		c-0.6,0.3-1.4,0.4-2.3,0.7c-1.7,0.4-3.6,0.9-4.8,2.5c-0.9,1.3-0.9,2-0.7,2.7c0,0.6,0.1,1.2-0.6,1.9c-0.9,1-2,1.2-2.9,0.9
		c-0.6-0.1-0.9-0.6-0.9-1.2c0-0.3,0-0.9,0-1.4c0.1-2.5,0.3-6.2-1.2-7.1c-0.3-0.3-3.2-2.2-5.5-1.6c-0.6,0.1-1,0.4-1.4,0.9
		C4.8,12.5,10.8,6.1,18.6,3.3z M2,22.1c0.4-1,1.2-1.7,1.9-1.9c2.2-0.6,4.8,1.3,5,1.4c1.2,0.9,1,4.5,0.9,6.8c0,0.6,0,1.2,0,1.4
		c0,0.7,0.4,1.3,1.3,1.6c0.1,0,0.4,0.1,0.6,0.1c0.9,0.1,2-0.3,2.7-1.2c0.7-0.9,0.7-1.6,0.6-2.3c0-0.7-0.1-1.3,0.7-2.5
		c1-1.4,2.9-1.9,4.5-2.3c0.9-0.1,1.7-0.4,2.3-0.7c0.7-0.3,1-0.9,1.2-1.7c0.1-1.3-0.6-3-1.4-3.7C22.2,17,22,16.8,22,16.7
		c0-0.3,0.7-0.7,1.6-1.3c0.3-0.1,0.7-0.4,1.2-0.7c0.7-0.6,1.7-0.7,2.7-0.9c1.6-0.3,3.2-0.4,4-1.9c0.7-1,0.6-2.2-0.1-3.2
		c-0.6-1-2.3-1.7-4.3-1.2c-3.2,1-5.8-0.6-6.9-2.2c-1-1.3-1-2.2-0.9-2.3c3.2-1,6.7-1.4,10.3-1.1c8.1,0.7,15,5,19.3,11.2
		c-0.7-0.1-2-0.1-3,0.4c-0.7,0.4-1.3,1.2-1.4,2.2c-0.1,0.4-0.1,0.9-0.3,1.2c-0.6,2.5-0.7,3.2-2.9,3c-2.9-0.3-6.6,2-6.8,4.2
		c0,0.9-0.4,1.6-0.9,2.3c-0.6,1-1,2.2-0.9,3.5s0.9,1.6,1.4,1.9c0.1,0.1,0.3,0.1,0.4,0.3c0,0,0,0.1-0.1,0.4c-0.7,1.6,1.6,4.9,3,5.8
		c1.3,0.9,3.9,4.9,3.3,6.9c-0.1,0.6-0.3,1-0.4,1.4c-0.4,1.3-0.9,2.5,0.1,3.6c-4.5,2.6-9.7,3.9-15.3,3.5c-0.1,0-0.3,0-0.4,0
		c0.4-0.9,1.6-3.2,1.4-4.3c0-0.1,0-0.3,0-0.4c-0.1-0.7-0.1-1.4,0.1-1.7c0.1-0.1,0.4-0.3,0.7-0.3c0.3,0,0.7,0,1.2,0
		c1.6,0.1,3.6,0.3,4-0.9c0.4-0.9,1.3-3.2-0.4-4.3c-0.6-0.3-1.4-0.9-2.6-1.4c-1.7-1-3.7-2-4.5-2.6c-1.3-1-2.6-2.2-2.3-3.3
		c0.1-0.7-0.1-1.6-0.7-2.2c-0.6-0.4-1.4-0.6-2.2-0.1c-0.3,0.1-0.9,0.4-1.4,0.6c-2,0.9-4.9,2.2-5.2,4.6c-0.3,3.6,1.7,4.2,2.5,4.2
		c0.9,0.1,1.7,0.6,2,1c0.1,0.1,0.1,0.4,0,0.6c-0.1,0.3-0.4,0.6-0.7,0.7c-0.4,0.4-1,0.9-1.2,2c-0.1,1.4,1,1.9,2,2.3
		c0.4,0.1,0.9,0.4,1,0.6c0.4,0.4,0.1,2.2-0.1,3.3c-10.7-3.6-18-14.4-17-26.4C1.6,24.4,1.8,23.2,2,22.1z"/>
	<g>
		<g id="XMLID_15_">
			<g>
				<g>
					<g>
						<path class="st1" d="M45.7,29.3c-0.1,0-0.1-0.1-0.1-0.3l0.4-4.3c0-0.1,0-0.1,0-0.3c0-0.4,0.1-0.7,0.4-1h0.1h-0.1
							c0.4-0.6,1-1,1.7-1.2c0.7-0.1,1.4,0,2,0.4c1.2,0.9,1.6,2.5,0.7,3.6c-0.1,0.3-0.4,0.6-0.9,0.7l0,0h-0.1l0,0L46,29.1
							C46,29.3,45.9,29.3,45.7,29.3L45.7,29.3z M49.8,27l0.1-0.1c0.3-0.1,0.7-0.4,0.9-0.9c0.7-1.2,0.4-2.6-0.7-3.3
							c-0.6-0.3-1.2-0.4-1.9-0.3c-0.6,0.1-1.2,0.6-1.6,1c-0.1,0.3-0.3,0.6-0.4,0.9l0,0c0,0.1,0,0.1,0,0.3l-0.4,4.3V29c0,0,0,0,0.1,0
							L49.8,27L49.8,27z M47.5,24.1c0.4-0.7,1.3-0.9,2-0.4c0.7,0.4,0.9,1.3,0.4,2c-0.4,0.7-1.3,0.9-2,0.4
							C47.3,25.5,47,24.7,47.5,24.1z M47.7,24.1c-0.4,0.6-0.3,1.3,0.3,1.7c0.6,0.4,1.3,0.3,1.7-0.3c0.4-0.6,0.3-1.3-0.3-1.7
							C48.8,23.4,48,23.6,47.7,24.1z"/>
					</g>
				</g>
			</g>
		</g>
		<g>
			<path class="st1" d="M45.9,29.7c-0.1,0-0.1-0.1-0.3-0.1c-0.1-0.1-0.4-0.1-0.6-0.3c0,0,0,0,0-0.1s0.1-0.1,0.3-0.3
				c0.3,0.1,0.7,0.3,1,0.4C46,29.6,46,29.6,45.9,29.7z"/>
			<path class="st1" d="M42.8,28.7L42.8,28.7c-0.4,0-0.5-0.1-0.8-0.1c0-0.1,0.1-0.3,0.3-0.4c0.1,0,0.3,0,0.4,0c0.1,0,0.4,0,0.6,0
				c0.1,0,0.3,0,0.4,0.1c0.3,0,0.4,0.1,0.7,0.1c-0.1,0.1-0.1,0.3-0.3,0.4C43.7,29,43.3,28.8,42.8,28.7z"/>
			<path class="st1" d="M39.7,28.1c0.4,0,1,0,1.4,0c-0.1,0.1-0.1,0.3-0.3,0.4c-0.4,0-0.9,0-1.3,0C39.7,28.5,39.7,28.3,39.7,28.1z"/>
			<path class="st1" d="M36.5,28.7c0.1,0,0.4-0.1,0.6-0.1c0.6-0.1,1-0.3,1.6-0.3c0,0.1,0,0.3-0.1,0.4c-0.6,0.1-1.3,0.3-1.9,0.4
				C36.6,29,36.5,28.8,36.5,28.7z"/>
			<path class="st1" d="M32.9,30.1c0.4-0.3,1-0.4,1.4-0.7c0.4-0.1,0.7-0.3,1.2-0.4c0,0.1,0.1,0.3,0.1,0.4c-0.1,0-0.3,0.1-0.4,0.1
				c-0.7,0.3-1.3,0.6-2,0.9C33.2,30.3,33,30.3,32.9,30.1z"/>
			<path class="st1" d="M29.6,32.3c0.3-0.3,0.7-0.6,1.2-0.9c0.4-0.3,0.9-0.6,1.4-0.9c0.1,0.1,0.1,0.3,0.3,0.4
				c-0.9,0.4-1.7,1-2.5,1.6C29.9,32.4,29.7,32.3,29.6,32.3z"/>
			<path class="st1" d="M27,35.2c0.6-0.9,1.2-1.6,1.9-2.3c0.1,0.1,0.3,0.1,0.4,0.3c-0.7,0.7-1.3,1.4-1.9,2.3
				C27.3,35.3,27.1,35.3,27,35.2z"/>
			<path class="st1" d="M25.5,38.6h-0.1c0.3-0.9,0.6-1.6,1-2.5c0,0,0-0.1,0.1-0.1s0.3,0.1,0.4,0.1c-0.1,0.4-0.4,0.7-0.6,1.2
				c-0.1,0.4-0.4,0.9-0.6,1.3C25.8,38.6,25.7,38.6,25.5,38.6z"/>
			<path class="st1" d="M24.7,44C24.7,43.8,24.7,43.8,24.7,44c-0.1-0.6-0.1-1-0.1-1.4c0.1,0,0.3,0,0.6,0c0,0.3,0,0.6,0,0.9
				c0,0.1,0,0.4,0,0.6C25,43.8,24.8,43.8,24.7,44z"/>
		</g>
		<g>
			<path class="st1" d="M12.3,15.7c0.1,0,0.1,0.1,0.3,0.1c0.1,0.1,0.4,0.1,0.6,0.3V16c0-0.1,0-0.3,0-0.4c-0.3-0.1-0.7-0.3-1-0.4
				C12.3,15.3,12.3,15.6,12.3,15.7z"/>
			<path class="st1" d="M15.3,17.6l0.1,0.1c0.1,0.1,0.4,0.3,0.6,0.4c0-0.1,0-0.3,0-0.4c-0.1-0.1-0.3-0.3-0.4-0.4
				c-0.1-0.1-0.3-0.3-0.6-0.4c-0.1-0.1-0.3-0.1-0.4-0.3s-0.4-0.3-0.6-0.4c0,0.1,0,0.4,0,0.6C14.4,17,14.9,17.3,15.3,17.6z"/>
			<path class="st1" d="M18,19.8c-0.4-0.4-0.9-0.9-1.2-1.3c0,0.1,0,0.4,0,0.6c0.4,0.4,0.7,0.7,1.2,1.2C18,20,18,19.9,18,19.8z"/>
			<path class="st1" d="M20.5,22.8c-0.1-0.1-0.3-0.4-0.4-0.6c-0.4-0.6-0.9-1-1.2-1.6c0,0.1-0.1,0.3-0.1,0.4c0.4,0.6,1,1.3,1.4,1.9
				C20.4,22.9,20.5,22.9,20.5,22.8z"/>
			<path class="st1" d="M23,26.8c-0.3-0.6-0.6-1.2-1-1.7c-0.6-1-0.6-0.9-0.7-1.2c-0.1,0-0.1,0.1-0.3,0.1c0.1,0.1,0.1,0.3,0.3,0.4
				c0.4,0.7,0.9,1.6,1.3,2.3C22.7,26.8,22.8,26.8,23,26.8z"/>
			<path class="st1" d="M24.5,31.3c-0.1-0.6-0.3-1-0.6-1.6c-0.3-0.6-0.6-1.2-0.9-1.7c-0.1,0-0.3,0-0.4,0c0.6,1.2,1,2.2,1.3,3.2
				C24.2,31.1,24.4,31.1,24.5,31.3z"/>
			<path class="st1" d="M25.5,35.6c-0.1-1-0.3-2.2-0.6-3.3c-0.1,0-0.3-0.1-0.4-0.1c0.3,1,0.4,2.2,0.6,3.2
				C25.1,35.3,25.4,35.5,25.5,35.6z"/>
			<path class="st1" d="M25.3,39.1l0.1,0.1c0.1-0.9,0.1-1.6,0.1-2.6v-0.1c-0.1-0.1-0.3-0.1-0.4-0.3c0,0.4,0,0.9,0,1.3s0,1-0.1,1.4
				C25,38.9,25.1,39.1,25.3,39.1z"/>
			<path class="st1" d="M25.4,42.1c0.3-0.6,0.4-1.3,0.6-2L25.9,40c-0.1-0.1-0.1-0.1-0.3-0.3c-0.1,0.7-0.3,1.3-0.6,1.9
				C25.1,41.7,25.3,42,25.4,42.1z"/>
		</g>
		<g id="XMLID_3_">
			<g>
				<g>
					<g>
						<path class="st1" d="M11.9,15c-0.1,0-0.1-0.1-0.1-0.1l-0.9-3.6c0,0,0-0.1,0-0.3c0-0.3,0-0.6,0-0.9H11h-0.1
							c0.3-0.6,0.6-1,1.2-1.4c0.6-0.3,1.2-0.4,1.7-0.1c1.2,0.3,1.9,1.6,1.6,2.7c-0.1,0.3-0.3,0.6-0.4,0.9l0,0l-0.1,0.1l0,0L12.1,15
							C12,15,11.9,15,11.9,15L11.9,15z M14.4,12.3L14.4,12.3c0.3-0.3,0.6-0.6,0.6-1c0.3-1.2-0.3-2.2-1.4-2.6c-0.4-0.1-1,0-1.6,0.3
							c-0.4,0.1-0.7,0.6-0.9,1.2c-0.1,0.3-0.1,0.6,0,0.9l0,0v0.1l0.7,3.6l0,0c0,0,0,0,0.1,0L14.4,12.3L14.4,12.3z M11.9,10.4
							c0.1-0.6,0.9-1,1.4-0.9c0.6,0.1,1,0.9,0.9,1.4c-0.1,0.6-0.9,1-1.4,0.9C12.1,11.7,11.7,11,11.9,10.4z M12,10.4
							c-0.1,0.6,0.1,1.2,0.7,1.3c0.6,0.1,1.2-0.1,1.3-0.7c0.1-0.6-0.1-1.2-0.7-1.3S12.3,9.8,12,10.4z"/>
					</g>
				</g>
			</g>
		</g>
		<g id="XMLID_2_">
			<g>
				<g>
					<g>
						<path class="st1" d="M23.4,44.1c-0.1,0-0.1,0-0.1-0.1l-1.9-2.5l0,0l0,0l0,0c-0.1-0.1-0.3-0.4-0.3-0.7c-0.1-1,0.6-1.9,1.4-2
							c0.4-0.1,1,0,1.3,0.3c0.4,0.3,0.6,0.7,0.7,1.2h-0.1h0.1c0,0.3,0,0.4,0,0.7v0.1l-1,2.9C23.5,44.1,23.4,44.1,23.4,44.1
							L23.4,44.1z M21.5,41.7l1.7,2.3l0,0l0,0l1-2.9V41l0,0c0-0.3,0.1-0.4,0-0.7c0-0.4-0.3-0.9-0.7-1.2c-0.3-0.3-0.9-0.4-1.3-0.3
							c-0.9,0.1-1.6,1-1.4,1.9C21.2,41.1,21.2,41.2,21.5,41.7L21.5,41.7L21.5,41.7z M23,41.5c-0.6,0.1-1-0.3-1.2-0.9
							c-0.1-0.6,0.3-1,0.9-1.2s1,0.3,1.2,0.9C24,40.9,23.4,41.4,23,41.5z M22.7,39.6c-0.4,0-0.7,0.4-0.7,1c0,0.4,0.4,0.7,1,0.7
							c0.4,0,0.7-0.4,0.7-1C23.5,39.9,23.1,39.6,22.7,39.6z"/>
					</g>
				</g>
			</g>
		</g>
	</g>
</g>
</svg>
